<svg width="223" height="96" viewBox="0 0 223 96" fill="none" xmlns="http://www.w3.org/2000/svg">
<g clip-path="url(#clip0_1275_5619)">
<path d="M16.7797 49.446V55.765C15.5167 56.0685 14.2224 56.2251 12.923 56.2318C7.46054 56.2318 3.13667 53.2735 3.13667 47.0188C3.13667 41.3533 6.64961 37.8992 11.9823 37.8992C13.5132 37.8706 15.0285 38.2099 16.3987 38.8881C17.769 39.5664 18.9536 40.5634 19.8515 41.7943L18.8784 36.8788C16.7832 36.3143 14.6236 36.019 12.4526 36C3.98328 36 0 41.6945 0 47.5468C0 54.0203 4.60932 58.1696 11.4795 58.1696C13.5248 58.2087 15.552 57.7825 17.4058 56.9239L19.6958 58.2115V49.446L20.8863 47.1733H15.372L16.7797 49.446Z" fill="#181B21"/>
<path d="M40.6464 36.4058H37.1335L38.3564 38.614L30.2957 55.7008L28.3203 57.8897H33.9027L32.4593 55.9293L35.3786 49.1693H43.1408L46.0602 55.8907L44.7627 57.8897H51.1009L49.1547 55.6364L40.6464 36.4058ZM36.1052 47.4858L39.2484 40.2332L42.4143 47.4858H36.1052Z" fill="#181B21"/>
<path d="M63.7951 52.8712V38.6784L65.1996 36.4058H59.4355L60.8466 38.6784V55.5463L59.4355 57.8897H73.5781L74.801 54.5612C71.2154 55.3362 67.5786 55.8558 63.9184 56.116C63.8243 55.1729 63.7951 54.1138 63.7951 52.8712Z" fill="#181B21"/>
<path d="M222.133 57.8897L220.187 55.6364L211.691 36.4058H208.178L209.401 38.614L201.341 55.7008L199.365 57.8897H204.948L203.504 55.9293L206.424 49.1693H214.173L217.092 55.8907L215.795 57.8833L222.133 57.8897ZM207.144 47.4858L210.28 40.2332L213.436 47.4858H207.144Z" fill="#181B21"/>
<path d="M154.255 42.5347C154.255 38.5817 151.011 36.4185 144.374 36.4185H137.562L138.974 38.6911V55.559L137.569 57.8896H143.307L141.896 55.5558V48.3257L153.061 57.8896H157.768L145.766 48.6477C151.368 48.3257 154.255 45.9791 154.255 42.5347ZM141.896 47.2667V41.4144C141.896 40.3586 141.929 39.1611 142.023 38.0859H144.436C149.078 38.0859 151.147 39.454 151.147 42.6602C151.157 47.2989 146.317 47.2667 143.087 47.2667H141.896Z" fill="#181B21"/>
<path d="M189.075 38.6784L190.363 36.4058H185.942L186.065 38.2728L178.569 53.6181L170.197 36.4058H166.713L168.377 39.6731L166.901 55.4529L164.803 57.8801H170.603L169.068 55.6718L169.821 42.5348L177.911 58.5046H178.319L186.286 41.788L187.194 55.6074L185.627 57.8801H191.962L190.331 55.6074L189.075 38.6784Z" fill="#181B21"/>
<path d="M82.7148 57.8894H90.0521C98.5831 57.8894 102.849 53.2217 102.849 46.9027C102.849 40.4292 98.3333 36.415 90.0521 36.415H82.7148L84.1259 38.6877V55.5556L82.7148 57.8894ZM87.0744 41.4239C87.0744 40.4292 87.1068 39.309 87.1685 38.2821H89.7407C96.4844 38.2821 99.7119 41.5011 99.7119 47.1216C99.7119 52.5071 96.6401 55.9612 89.7407 56.0223L87.2009 56.0545C87.1068 55.121 87.0744 54.0941 87.0744 52.8805V41.4239Z" fill="#181B21"/>
<path d="M116.524 52.8709V47.2666C119.66 47.3309 123.738 47.5144 126.56 47.8267L126.089 45.6184L116.524 45.7729V41.4143C116.524 40.3585 116.556 39.206 116.618 38.118C120.224 38.2964 123.806 38.7963 127.322 39.6116L126.099 36.3926H112.164L113.575 38.6652V55.5331L112.164 57.8894H126.404L127.627 54.5287C124.021 55.3733 120.349 55.9043 116.65 56.1157C116.556 55.1726 116.524 54.1135 116.524 52.8709Z" fill="#181B21"/>
<path d="M91.3138 73.2219H94.4731V72.5459H91.3138V70.637H94.6418V69.9546H90.5645V75.8648H94.7294V75.1823H91.3138V73.2219Z" fill="#181B21"/>
<path d="M126.45 72.8324C126.738 72.7366 126.987 72.5524 127.162 72.3063C127.337 72.0603 127.429 71.7654 127.423 71.4643C127.423 70.5372 126.684 69.8354 125.406 69.8354C124.128 69.8354 123.391 70.5372 123.391 71.4643C123.386 71.7654 123.477 72.0603 123.652 72.3063C123.827 72.5524 124.077 72.7366 124.365 72.8324C124.039 72.9144 123.751 73.1023 123.546 73.3661C123.34 73.6298 123.23 73.9542 123.232 74.2874C123.232 75.2306 124.008 75.9838 125.419 75.9838C126.83 75.9838 127.608 75.2306 127.608 74.2874C127.609 73.9507 127.495 73.6237 127.285 73.3594C127.075 73.0952 126.78 72.9095 126.45 72.8324ZM124.118 71.5061C124.118 70.8977 124.543 70.4921 125.393 70.4921C126.243 70.4921 126.671 70.8977 126.671 71.5061C126.671 72.1145 126.246 72.5201 125.393 72.5201C124.54 72.5201 124.118 72.1145 124.118 71.5061ZM125.393 75.3175C124.442 75.3175 123.966 74.8604 123.966 74.2423C123.966 73.6243 124.442 73.1704 125.393 73.1704C126.343 73.1704 126.823 73.6275 126.823 74.2423C126.823 74.8572 126.346 75.3175 125.393 75.3175Z" fill="#181B21"/>
<path d="M112.586 70.8237V71.5416L114.169 70.74V75.8648H114.902V69.9546H114.299L112.586 70.8237Z" fill="#181B21"/>
<path d="M119.33 69.8354C118.033 69.8354 117.118 70.6724 117.118 71.8956C117.109 72.163 117.155 72.4294 117.254 72.6785C117.352 72.9276 117.5 73.1542 117.69 73.3446C117.879 73.5349 118.106 73.685 118.355 73.7857C118.605 73.8863 118.873 73.9355 119.142 73.9301C119.556 73.9379 119.961 73.8076 120.291 73.5599L118.451 75.8647H119.347L120.625 74.1941C121.161 73.5602 121.472 72.7679 121.507 71.9407C121.507 70.6273 120.579 69.8354 119.33 69.8354ZM119.311 73.2895C118.419 73.2895 117.864 72.7648 117.864 71.8956C117.851 71.7051 117.879 71.5139 117.948 71.3353C118.016 71.1568 118.123 70.9951 118.26 70.8616C118.398 70.728 118.563 70.6258 118.745 70.562C118.926 70.4982 119.119 70.4744 119.311 70.4921C120.206 70.4921 120.761 71.0265 120.761 71.8956C120.761 72.7648 120.206 73.2895 119.311 73.2895Z" fill="#181B21"/>
<path d="M99.5324 72.6487L98.5593 72.4202C97.7678 72.2335 97.4856 71.947 97.4856 71.4899C97.4856 70.875 97.9981 70.5241 98.848 70.5241C99.5811 70.5241 100.145 70.7945 100.441 71.2838L101.028 70.9297C100.739 70.3053 99.9476 69.8481 98.8642 69.8481C97.5375 69.8481 96.7201 70.5402 96.7201 71.5124C96.7201 72.3139 97.2813 72.829 98.3809 73.0897L99.354 73.3183C100.097 73.4953 100.411 73.8011 100.411 74.284C100.411 74.9085 99.873 75.3238 98.9713 75.3238C98.5988 75.3488 98.2272 75.2625 97.9046 75.076C97.582 74.8896 97.3231 74.6115 97.1613 74.2776L96.5547 74.622C96.8791 75.4751 97.7484 75.9998 98.9648 75.9998C100.376 75.9998 101.187 75.2916 101.187 74.2583C101.183 73.4406 100.697 72.9256 99.5324 72.6487Z" fill="#181B21"/>
<path d="M129.252 70.8237V71.5416L130.835 70.74V75.8648H131.568V69.9546H130.965L129.252 70.8237Z" fill="#181B21"/>
<path d="M108.301 74.9182C108.199 74.9176 108.099 74.9471 108.014 75.0031C107.929 75.059 107.863 75.1388 107.824 75.2322C107.785 75.3257 107.775 75.4285 107.795 75.5277C107.816 75.6268 107.865 75.7177 107.938 75.7887C108.01 75.8598 108.102 75.9078 108.202 75.9266C108.303 75.9453 108.406 75.9341 108.5 75.8942C108.593 75.8543 108.673 75.7876 108.728 75.7026C108.784 75.6177 108.812 75.5183 108.81 75.4171C108.813 75.3503 108.802 75.2837 108.777 75.2214C108.752 75.1592 108.715 75.1028 108.667 75.0558C108.619 75.0088 108.561 74.9723 108.498 74.9486C108.435 74.9249 108.368 74.9145 108.301 74.9182Z" fill="#181B21"/>
<path d="M102.557 70.6467H104.548V75.8648H105.298V70.6467H107.289V69.9546H102.557V70.6467Z" fill="#181B21"/>
</g>
<defs>
<clipPath id="clip0_1275_5619">
<rect width="222.133" height="96" fill="white"/>
</clipPath>
</defs>
</svg>
